<?xml version="1.0" standalone="no"?><!-- Generator: Adobe Fireworks CS5, Export SVG Extension by Aaron Beall (http://fireworks.abeall.com) . Version: 0.6.1  --><!DOCTYPE svg PUBLIC "-//W3C//DTD SVG 1.1//EN" "http://www.w3.org/Graphics/SVG/1.1/DTD/svg11.dtd"><svg id="RTron-Page%201" viewBox="0 0 286 78" style="background-color:#ffffff00" version="1.1"	xmlns="http://www.w3.org/2000/svg" xmlns:xlink="http://www.w3.org/1999/xlink" xml:space="preserve"	x="0px" y="0px" width="286px" height="78px">	<g id="Layer%201">		<path d="M 28.2845 40.5652 C 31.7513 39.4306 34.0156 37.5668 35.4687 35.946 C 38.6172 32.3993 40.3118 27.2505 40.3118 21.4152 C 40.3118 15.4941 38.6172 10.3454 35.4687 6.8233 C 33.0468 4.094 28.1978 0.8837 19.704 0.8837 L 9.1252 0.8837 L 0.6054 0.8837 L 0.6054 64.4174 L 10.6901 64.4174 L 10.6901 41.9428 L 18.0572 41.9428 L 34.0963 64.4174 L 45.0064 64.4174 L 28.2845 40.5652 L 28.2845 40.5652 ZM 10.6901 33.5148 L 10.6901 9.3117 L 19.704 9.3117 C 23.8642 9.3117 26.9844 10.4312 28.9778 12.6623 C 31.4046 15.2367 31.8359 18.8408 31.8359 21.4152 C 31.8359 23.9038 31.4046 27.5079 28.9778 30.0823 C 26.9844 32.3134 23.8642 33.5148 19.704 33.5148 L 10.6901 33.5148 L 10.6901 33.5148 Z" fill="#3f85b8"/>		<path d="M 96.2755 0.8405 L 50.6335 0.8405 L 50.6335 9.2685 L 68.3687 9.2685 L 68.3687 64.4174 L 78.5404 64.4174 L 78.5404 9.2685 L 96.2755 9.2685 L 96.2755 0.8405 L 96.2755 0.8405 Z" fill="#3f85b8"/>		<path d="M 68 64 L 68 69 L 79 69 L 79 64 " fill="#3f85b8"/>		<path d="M 134.3413 40.5652 C 137.8082 39.4306 140.0724 37.5668 141.5255 35.946 C 144.674 32.3993 146.3686 27.2505 146.3686 21.4152 C 146.3686 15.4941 144.674 10.3454 141.5255 6.8233 C 139.1037 4.094 134.2546 0.8837 125.7608 0.8837 L 115.182 0.8837 L 106.6622 0.8837 L 106.6622 64.4174 L 116.7469 64.4174 L 116.7469 41.9428 L 124.114 41.9428 L 140.1532 64.4174 L 151.0632 64.4174 L 134.3413 40.5652 L 134.3413 40.5652 ZM 116.7469 33.5148 L 116.7469 9.3117 L 125.7608 9.3117 C 129.921 9.3117 133.0412 10.4312 135.0347 12.6623 C 137.4615 15.2367 137.8927 18.8408 137.8927 21.4152 C 137.8927 23.9038 137.4615 27.5079 135.0347 30.0823 C 133.0412 32.3134 129.921 33.5148 125.7608 33.5148 L 116.7469 33.5148 L 116.7469 33.5148 Z" fill="#3f85b8"/>		<path d="M 191.6838 64.5254 C 196.15 64.5254 200.527 63.661 204.6359 62.0185 C 208.5662 60.376 212.0499 58.042 215.1531 55.1028 C 218.109 52.1729 220.3694 48.8149 222.0211 44.9403 C 223.673 41.0656 224.5424 36.8466 224.5424 32.5414 C 224.5424 28.2363 223.673 24.0172 222.0211 20.0565 C 220.3694 16.268 218.109 12.9099 215.1531 9.8955 C 212.0499 6.9563 208.5662 4.7087 204.6359 3.0663 C 200.527 1.4238 196.15 0.5593 191.6838 0.5593 C 187.2175 0.5593 182.8407 1.4238 178.8211 3.0663 C 174.8014 4.7087 171.3178 6.9563 168.2975 9.8955 C 165.3415 12.9099 162.9943 16.268 161.3425 20.0565 C 159.6907 24.0172 158.8213 28.2363 158.8213 32.5414 C 158.8213 36.8466 159.6907 41.0656 161.3425 44.9403 C 162.9943 48.8149 165.3415 52.1729 168.2975 55.1028 C 171.3178 58.042 174.8014 60.376 178.8211 62.0185 C 182.8407 63.661 187.2175 64.5254 191.6838 64.5254 L 191.6838 64.5254 ZM 191.6838 10.5871 C 197.7579 10.5871 203.4747 12.9099 207.7623 17.0429 C 212.0499 21.1758 214.4576 26.6864 214.4576 32.5414 C 214.4576 38.3964 212.0499 43.907 207.7623 48.04 C 203.4747 52.1729 197.7579 54.4977 191.6838 54.4977 C 185.6098 54.4977 179.893 52.1729 175.6054 48.04 C 171.3178 43.907 168.906 38.3964 168.906 32.5414 C 168.906 26.6864 171.3178 21.1758 175.6054 17.0429 C 179.893 12.9099 185.6098 10.5871 191.6838 10.5871 L 191.6838 10.5871 Z" fill="#3f85b8"/>		<path d="M 285.3512 0.6673 L 275.3534 0.6673 L 275.3534 39.2433 L 237.1034 0.6673 L 237.1034 64.4174 L 247.1012 64.4174 L 247.1012 25.926 L 285.3512 64.4174 L 285.3512 0.6673 L 285.3512 0.6673 Z" fill="#3f85b8"/>		<path d="M 68.2386 68.5254 L 285.5682 68.5254 L 285.5682 77.1695 L 68.2386 77.1695 L 68.2386 68.5254 Z" fill="#3f85b8"/>	</g></svg>